# Blender v2.92.0 OBJ File: 'crystal_gem.blend'
# www.blender.org
mtllib crystal_gem.mtl
o Cone
v 0.000000 1.001437 -1.000000
v 1.077786 0.912048 -0.322857
v 0.307885 0.809775 1.076326
v -0.674568 1.139996 0.947210
v -0.951056 1.001437 -0.309017
v -0.137779 2.254940 0.316029
v -0.000000 -1.000000 -0.643148
v 0.611670 -1.000000 -0.198744
v 0.378033 -1.000000 0.520318
v -0.378033 -1.000000 0.520318
v -0.611670 -1.000000 -0.198744
vt 0.250000 0.490000
vt 0.250000 0.250000
vt 0.478254 0.324164
vt 0.391068 0.055836
vt 0.108932 0.055836
vt 0.750000 0.490000
vt 0.978254 0.324164
vt 0.891068 0.055836
vt 0.608932 0.055836
vt 0.521746 0.324164
vt 0.021746 0.324164
vt 1.000000 0.500000
vt 1.000000 1.000000
vt 0.800000 1.000000
vt 0.800000 0.500000
vt 0.600000 1.000000
vt 0.600000 0.500000
vt 0.400000 1.000000
vt 0.400000 0.500000
vt 0.200000 1.000000
vt 0.200000 0.500000
vt 0.000000 1.000000
vt 0.000000 0.500000
vt 0.750000 0.490000
vt 0.978254 0.324164
vt 0.891068 0.055836
vt 0.608932 0.055836
vt 0.521746 0.324164
vn 0.4317 0.6753 -0.5980
vn 0.7578 0.4712 0.4514
vn 0.0445 0.4758 0.8784
vn -0.1139 -0.9932 -0.0246
vn -0.8606 0.4909 0.1353
vn -0.4624 0.6174 -0.6364
vn 0.5393 -0.1657 -0.8256
vn 0.8970 -0.1439 0.4180
vn -0.1189 -0.2502 0.9609
vn -0.9519 -0.1659 0.2575
vn -0.5818 -0.1428 -0.8007
vn 0.0000 -1.0000 0.0000
usemtl None
s off
f 1/1/1 6/2/1 2/3/1
f 2/3/2 6/2/2 3/4/2
f 3/4/3 6/2/3 4/5/3
f 1/6/4 2/7/4 3/8/4 4/9/4 5/10/4
f 4/5/5 6/2/5 5/11/5
f 5/11/6 6/2/6 1/1/6
f 7/12/7 1/13/7 2/14/7 8/15/7
f 8/15/8 2/14/8 3/16/8 9/17/8
f 9/17/9 3/16/9 4/18/9 10/19/9
f 10/19/10 4/18/10 5/20/10 11/21/10
f 11/21/11 5/20/11 1/22/11 7/23/11
f 7/24/12 8/25/12 9/26/12 10/27/12 11/28/12
